<?xml version="1.0" encoding="UTF-8" standalone="no"?>
<svg
   xmlns:dc="http://purl.org/dc/elements/1.1/"
   xmlns:cc="http://creativecommons.org/ns#"
   xmlns:rdf="http://www.w3.org/1999/02/22-rdf-syntax-ns#"
   xmlns:svg="http://www.w3.org/2000/svg"
   xmlns="http://www.w3.org/2000/svg"
   viewBox="0 0 266.66666 266.66666"
   height="266.66666"
   width="266.66666"
   xml:space="preserve"
   id="svg2"
   version="1.1"><metadata
     id="metadata8"><rdf:RDF><cc:Work
         rdf:about=""><dc:format>image/svg+xml</dc:format><dc:type
           rdf:resource="http://purl.org/dc/dcmitype/StillImage" /></cc:Work></rdf:RDF></metadata><defs
     id="defs6"><clipPath
       id="clipPath18"
       clipPathUnits="userSpaceOnUse"><path
         id="path16"
         d="M 0,200 H 200 V 0 H 0 Z" /></clipPath></defs><g
     transform="matrix(1.3333333,0,0,-1.3333333,0,266.66667)"
     id="g10"><g
       id="g12"><g
         clip-path="url(#clipPath18)"
         id="g14"><g
           transform="translate(40.2772,127.6639)"
           id="g20"><path
             id="path22"
             style="fill:#324789;fill-opacity:1;fill-rule:nonzero;stroke:none"
             d="m 0,0 c -0.698,-0.159 -1.227,-0.854 -1.227,-0.854 0,0 -1.241,-0.515 -1.362,-0.767 -0.18,-0.377 0.736,-0.54 0.736,-0.54 l -2.516,-3.19 c 0,0 -0.443,1.258 -1.234,1.936 -0.626,0.532 -1.47,0.58 -2.133,0.874 -0.56,0.256 -0.657,0.636 -0.657,0.636 0,0 0.422,2.071 1.666,3.288 0.705,0.688 1.538,0.3 2.347,0.753 0.629,0.353 1.459,1.48 1.542,2.067 C -2.437,7 -6.405,7.055 -7.705,5.527 -8.556,4.532 -8.721,3.332 -9.205,1.95 -9.893,0 -10.671,-2.088 -10.671,-2.088 c 0,0 -0.857,-0.439 -0.875,-0.657 -0.031,-0.453 0.647,-0.802 0.647,-0.802 l -0.584,-0.729 -1.47,2.285 -1.341,2.088 c 0,0 2.282,1.175 2.721,4.079 0.453,3.004 -0.75,7.518 -1.317,8.22 -0.73,0.902 -2.15,-0.052 -2.932,-1.22 -1.469,-2.199 -2.295,-6.046 -2.295,-6.046 0,0 -0.384,0.079 -0.684,0.432 -0.91,1.071 -2.728,3.502 -4.235,4.449 -0.774,0.491 -1.853,-0.27 -1.922,-0.398 -0.041,-0.083 -0.328,-0.663 -0.1,-0.833 0.453,-0.356 0.975,0.584 2.516,-1.334 1.549,-1.922 3.302,-4.47 3.302,-4.47 0,0 -1.4,0.809 -1.093,-0.373 0.235,-0.927 2.97,-2.451 2.97,-2.451 0,0 0.062,-2.067 0.501,-3.571 0.238,-0.819 0.854,-1.507 1.013,-1.538 0.739,-0.139 0.048,1.445 -0.235,2.589 -0.235,0.944 -0.014,1.48 -0.014,1.48 0,0 1.068,-1.518 2.243,-3.319 0.553,-0.847 1.68,-1.383 1.722,-2.541 0.079,-2.219 -0.937,-5.109 -1.456,-7.518 -0.947,-4.418 -1.738,-7.961 -1.738,-7.961 0,0 0.774,-1.532 2.212,0.76 0.888,1.407 1.414,4.788 1.974,7.519 0.504,2.464 1.089,4.366 1.089,4.366 0,0 1.607,-1.76 2.983,-1.687 1.428,0.069 2.634,1.974 2.634,1.974 0,0 3.087,-3.153 3.032,-5.78 -0.028,-1.501 -2.095,-3.056 -2.991,-3.931 -0.677,-0.667 -0.252,-0.847 -0.252,-0.847 0,0 3.972,1.49 4.369,4.235 0.488,3.346 -2.585,8.068 -2.585,8.068 0,0 0.764,1.179 1.825,2.645 1.016,1.396 2.326,3.059 2.551,3.992 C 1.683,-0.218 0.757,0.169 0,0 m -14.812,2.074 c -0.654,-0.349 -1.141,-0.01 -1.141,-0.01 0,0 -1.027,1.88 -0.581,3.968 0.284,1.31 0.761,2.938 1.362,3.889 1.044,1.639 1.348,1.068 1.694,-0.577 0.315,-1.449 0.467,-3.723 0.162,-5.144 -0.19,-0.892 -0.926,-1.815 -1.496,-2.126 m 9.119,-9.306 c -0.111,-0.349 -0.972,-2.05 -1.725,-1.987 -1.055,0.083 -2.271,1.732 -2.271,1.732 0,0 -0.035,0.694 0.228,1.521 0.29,0.915 0.874,1.97 0.874,1.97 0,0 1.255,-1.269 2.116,-2.223 0.432,-0.48 0.874,-0.709 0.778,-1.013" /></g><g
           transform="translate(18.0256,124.1712)"
           id="g24"><path
             id="path26"
             style="fill:#324789;fill-opacity:1;fill-rule:nonzero;stroke:none"
             d="m 0,0 c 0.439,-0.498 1.113,-1.238 1.645,-2.192 0.512,-0.916 0.872,-2.015 1.483,-2.641 0.636,-0.656 2.589,-0.318 2.589,-0.318 0,0 0.585,1.425 -0.66,2.707 C 1.804,0.899 -1.552,1.759 0,0" /></g><g
           transform="translate(117.0134,107.2377)"
           id="g28"><path
             id="path30"
             style="fill:#324789;fill-opacity:1;fill-rule:nonzero;stroke:none"
             d="M 0,0 V 12.32 H -9.973 V -19.559 L 0,-17.699 Z" /></g><g
           transform="translate(117.0134,107.2377)"
           id="g32"><path
             id="path34"
             style="fill:#324789;fill-opacity:1;fill-rule:nonzero;stroke:none"
             d="M 0,0 V 12.32 H -9.973 V -19.559 L 0,-17.699 Z" /></g><g
           transform="translate(117.0134,107.2377)"
           id="g36"><path
             id="path38"
             style="fill:none;stroke:#ffffff;stroke-width:0.73299998;stroke-linecap:butt;stroke-linejoin:miter;stroke-miterlimit:3.86400008;stroke-dasharray:none;stroke-opacity:1"
             d="M 0,0 V 12.32 H -9.973 V -19.559 L 0,-17.699 Z" /></g><g
           transform="translate(80.9313,107.2377)"
           id="g40"><path
             id="path42"
             style="fill:#1d58a6;fill-opacity:1;fill-rule:nonzero;stroke:none"
             d="M 0,0 V 12.32 H 9.973 V -17.699 H 4.988 Z" /></g><g
           transform="translate(80.9313,107.2377)"
           id="g44"><path
             id="path46"
             style="fill:#324789;fill-opacity:1;fill-rule:nonzero;stroke:none"
             d="M 0,0 V 12.32 H 9.973 V -17.699 H 4.988 Z" /></g><g
           transform="translate(80.9313,107.2377)"
           id="g48"><path
             id="path50"
             style="fill:none;stroke:#ffffff;stroke-width:0.73299998;stroke-linecap:butt;stroke-linejoin:miter;stroke-miterlimit:3.86400008;stroke-dasharray:none;stroke-opacity:1"
             d="M 0,0 V 12.32 H 9.973 V -17.699 H 4.988 Z" /></g><g
           transform="translate(100,196.344)"
           id="g52"><path
             id="path54"
             style="fill:#324789;fill-opacity:1;fill-rule:nonzero;stroke:none"
             d="m 0,0 c -53.124,0 -96.344,-43.218 -96.344,-96.341 0,-53.125 43.22,-96.347 96.344,-96.347 53.124,0 96.344,43.222 96.344,96.347 C 96.344,-43.218 53.124,0 0,0 m 0,-196.344 c -55.141,0 -100,44.861 -100,100.003 0,55.138 44.859,99.997 100,99.997 55.141,0 100,-44.859 100,-99.997 0,-55.142 -44.859,-100.003 -100,-100.003" /></g><g
           transform="translate(82.2134,153.5644)"
           id="g56"><path
             id="path58"
             style="fill:#324789;fill-opacity:1;fill-rule:nonzero;stroke:none"
             d="m 0,0 c 0,0 1.583,3.785 -1.044,5.033 -2.302,1.089 -6.557,-1.355 -6.557,-1.355 0,0 -0.377,0.294 -0.567,0.919 -0.308,1.003 -0.54,2.735 -0.975,4.511 -0.771,3.125 -1.455,6.644 -2.645,7.561 -0.432,0.338 -1.4,-0.488 -1.939,-1.57 -1.04,-2.084 -1.618,-5.43 -1.618,-5.43 0,0 0.56,-1.345 0.965,-0.481 0.508,1.093 0.664,3.346 1.172,4.539 0.843,1.97 1.604,-1.041 1.6,-1.023 0.367,-2.448 0.405,-6.744 1.659,-8.832 0.574,-0.954 1.431,-2.061 2.534,-1.964 1.618,0.142 3.747,2.071 4.733,1.925 0.421,-0.062 0.971,-1.095 0.884,-1.821 -0.335,-2.728 -1.527,-1.898 -2.423,-1.991 -2.112,-0.222 -4.193,-0.066 -4.4,-2.856 -0.014,-0.176 -0.021,-0.369 -0.017,-0.577 0.003,-0.297 1.04,-1.338 2.468,-1.023 1.154,0.259 2.537,0.992 3.536,1.597 h 0.007 c 0.785,0.477 1.327,0.868 1.327,0.868 0,0 0.916,0.1 2.081,-0.263 0.588,-0.187 1.269,-0.418 1.915,-0.602 h 2.365 c 0.027,0.069 0.041,0.146 0.038,0.242 C 5.071,-1.407 0,0 0,0 m -4.297,-1.424 c 0,0 -1.009,-0.809 -1.801,-1.152 -0.639,-0.269 -1.096,-0.093 -1.096,-0.093 0,0 -0.207,1.279 0.433,1.577 1.106,0.518 2.464,-0.332 2.464,-0.332 M 5.061,-2.835 2.696,-2.838 c 1.127,-0.325 2.15,-0.501 2.365,0.003 m -18.66,23.617 c 0.346,0.878 0.598,1.929 0.484,2.427 -0.678,3.042 -5.617,-3.222 -5.617,-3.222 0,0 -0.042,1.2 0.356,2.776 0.504,2.022 1.493,4.684 1.638,6.426 0.145,1.801 -1.13,1.317 -1.13,1.317 0,0 0.097,-1.161 -0.436,-3.145 -0.954,-3.592 -2.727,-9.185 -2.029,-10.61 0.132,-0.262 0.584,-0.352 1.086,0.056 0.836,0.684 0.985,2.154 1.994,3.474 1.113,1.459 3.049,2.752 3.049,2.752 0,0 -0.017,-1.214 -0.995,-3.36 -1.829,-4.034 -5.407,-10.768 -7.101,-14.747 -0.892,-2.109 -1.03,-3.388 -1.03,-3.388 0,0 0.377,-0.622 1.041,-0.186 0.456,0.304 0.684,0.767 1.189,1.202 0.601,0.515 1.459,0.961 1.659,0.661 0.339,-0.505 -0.37,-2.258 -0.881,-3.585 -0.388,-0.999 -0.585,-1.715 -0.585,-1.715 0,0 0.792,-0.038 1.535,1.248 1.352,2.323 1.02,3.751 0.978,4.501 -0.079,1.355 -2.858,0.163 -2.858,0.163 0,0 0.86,2.862 2.513,6.491 1.649,3.623 4.034,7.657 5.14,10.464 m -7.287,-6.613 C -22.13,13.464 -23.8,10.36 -23.8,10.36 c 0,0 -0.273,1.058 -0.235,2.575 0.031,1.238 0.387,2.862 0.335,3.796 -0.048,0.861 -0.494,0.705 -0.494,0.705 0,0 -0.681,-3.298 -1.051,-6.125 -0.214,-1.608 -0.511,-3.167 -0.062,-3.62 1.054,-1.068 5.735,5.075 5.735,5.075 0,0 -0.584,1.818 -1.314,1.403 m 1.808,-16.316 c 0,0 -0.138,-0.29 0.024,-0.681 l 0.902,-0.003 -0.902,-0.004 c 0.004,0 0.007,-0.007 0.007,-0.007 0.246,-0.556 0.851,-1.351 1.075,-2.26 0.291,-1.165 0.066,-2.648 0.657,-3.281 0.664,-0.715 2.122,-0.442 1.963,0.826 -0.248,2.019 -1.631,3.851 -2.426,4.726 h -0.004 c -0.235,0.262 -0.421,0.442 -0.508,0.511 -0.498,0.401 -0.788,0.173 -0.788,0.173 m 4.304,0.857 c -0.294,-0.169 -0.54,-0.781 -0.443,-1.545 0.076,-0.573 0.346,-1.234 0.947,-1.846 0.678,-0.701 2.213,-0.546 3.26,0.401 0.418,0.384 0.806,0.733 0.961,1.442 h 0.004 c 0.058,0.283 0.083,0.622 0.055,1.044 -0.159,2.558 -2.738,2.212 -2.738,2.212 l -1.542,2.676 c 0,0 -1.071,0.335 -1.261,1.144 -0.204,0.864 0.463,2.23 0.083,2.921 -0.45,0.812 -1.293,0.18 -1.293,0.18 0,0 0.508,2.136 0.408,2.89 -0.139,1.044 -0.799,0.183 -0.799,0.183 0,0 -1.331,-3.135 -1.116,-4.48 0.121,-0.75 1.849,-0.076 1.849,-0.076 0,0 -0.387,-1.815 0.014,-2.818 0.263,-0.66 1.372,-0.656 1.372,-0.656 l 1.549,-2.79 c 0,0 1.058,0.145 1.694,-0.346 0.591,-0.456 0.847,-1.417 0.56,-2.081 -0.038,-0.089 -0.09,-0.176 -0.149,-0.256 -1.02,-1.313 -1.874,-0.477 -2.344,0.256 -0.252,0.398 -0.394,0.764 -0.394,0.764 0,0 -0.37,0.961 -0.677,0.781" /></g><g
           transform="translate(139.3722,177.5916)"
           id="g60"><path
             id="path62"
             style="fill:#324789;fill-opacity:1;fill-rule:nonzero;stroke:none"
             d="m 0,0 -1.189,-2.247 c 0,0 -0.93,-0.733 -1.946,-1.998 -1.663,-2.074 -3.744,-5.099 -3.744,-5.099 0,0 -0.612,-0.349 -1.822,-0.238 -1.711,0.152 -4.967,0.795 -7.567,1.099 -4.269,0.501 -7.846,0.688 -7.846,0.688 0,0 -1.397,-1.182 1.835,-2.351 2.804,-1.013 7.543,-1.089 10.55,-1.213 1.639,-0.066 2.776,-0.346 2.776,-0.346 0,0 -0.152,-0.619 -1.224,-1.652 -1.514,-1.459 -4.338,-3.443 -7.027,-4.982 -1.331,-0.76 -2.437,-1.517 -3.709,-1.842 -1.148,-0.29 -2.341,-0.85 -3.416,-0.37 -2.295,1.023 -4.089,3.903 -4.089,3.903 0,0 -0.398,-0.47 0,-1.476 0.702,-1.753 2.624,-4.425 4.701,-4.369 5.047,0.138 10.484,4.78 12.597,6.36 0.466,0.349 0.791,0.366 0.791,0.366 0,0 0.705,-2.184 0.802,-4.805 0.083,-2.24 -0.491,-4.829 -0.017,-6.294 0.218,-0.657 1.116,-0.858 2.195,-1.013 0.612,-0.09 1.434,-0.356 1.846,-0.194 0.38,0.145 0.567,0.619 0.501,0.951 -0.076,0.37 0.017,1.137 -0.328,1.604 -0.688,0.926 -1.819,1.597 -2.282,2.789 -1.383,3.606 -1.828,7.678 -1.828,7.678 0,0 0.808,1.02 1.849,1.977 0.567,0.519 0.916,1.061 1.898,1.307 1.559,0.398 3.809,-0.55 5.572,-0.702 2.299,-0.2 2.949,1.169 2.019,2.489 -0.401,0.57 -1.027,0.671 -1.027,0.671 0,0 -0.508,-0.985 -1.593,-1.072 -1.718,-0.131 -4.308,0.612 -4.308,0.612 0,0 0.903,1.963 2.617,4.076 0.861,1.064 2.683,2.122 3.173,3.08 C 1.67,-0.85 0,0 0,0" /></g><g
           transform="translate(177.8696,138.9089)"
           id="g64"><path
             id="path66"
             style="fill:#324789;fill-opacity:1;fill-rule:nonzero;stroke:none"
             d="m 0,0 c 0,0 -0.318,0.619 0.156,0.667 1.479,0.138 3.194,1.13 3.992,2.022 0.85,0.941 -0.059,1.857 -0.059,1.857 0,0 -0.784,-1.397 -2.357,-2.268 -1.556,-0.864 -3.906,-1.206 -3.906,-1.206 0,0 -1.905,1.285 -3.035,1.106 -0.481,-0.076 0.031,-1.373 0.031,-1.373 0,0 -1.269,-1.147 -0.65,-1.735 1.272,-1.203 2.433,0.052 3.453,0.176 0.505,0.059 1.041,-0.294 1.041,-0.294 0,0 -1.079,-0.28 -1.839,-0.743 -0.744,-0.456 -1.169,-1.092 -1.169,-1.092 0,0 -1.611,1.103 -1.929,1.016 -0.39,-0.103 0.495,-1.4 0.495,-1.4 0,0 -0.018,-0.335 -0.374,-0.632 -0.515,-0.426 -1.448,-0.813 -2.129,-1.3 -0.688,-0.491 -1.117,-1.072 -1.117,-1.072 0,0 -0.311,0.318 0.059,1.11 0.27,0.567 1.179,1.479 1.452,2.243 0.384,1.086 0.408,2.199 0.892,3.367 0.795,1.922 1.849,3.07 2.216,4.874 0.128,0.612 -0.394,1.507 -0.443,2.036 -0.211,2.448 -1.299,3.067 -1.414,1.791 -0.076,-0.819 0.391,-2.444 -0.048,-3.951 -0.94,-3.246 -2.897,-7.066 -2.897,-7.066 0,0 -1.006,-1.109 -1.815,-1.424 -0.611,-0.232 -1.082,0.304 -1.082,0.304 0,0 1.905,3.018 1.829,4.619 -0.055,1.282 -2.088,1.22 -2.088,1.22 0,0 0.833,-0.989 0.391,-2.665 -0.394,-1.483 -1.545,-3.215 -2.199,-4.512 -0.473,-0.94 -0.573,-1.859 -0.573,-1.859 l -5.127,-1.832 c 0,0 0.225,0.85 0.937,1.745 0.643,0.813 1.842,1.521 2.413,2.085 0.349,0.342 0.269,0.743 0.269,0.743 0,0 -2.779,0.245 -4.248,-1.86 -0.954,-1.379 -2.451,-3.163 -2.586,-4.518 -0.11,-1.089 1.062,-1.915 1.062,-1.915 0,0 3.84,2.6 8.434,3.433 1.995,0.359 4.739,0.653 6.381,0.418 1.234,-0.18 1.663,-0.871 1.663,-0.871 0,0 2.088,0.867 4.124,0.577 1.687,-0.232 3.394,-1.638 3.394,-1.638 0,0 -1.541,-0.827 -3.436,-0.723 -1.953,0.111 -4.303,1.151 -6.768,1.085 -3.277,-0.086 -6.188,-0.667 -7.615,-1.064 -0.55,-0.152 -1.566,-1.393 -0.695,-1.784 0.678,-0.301 1.967,-0.152 3.118,-0.276 1.773,-0.191 3.398,-0.553 3.398,-0.553 0,0 -2.696,-0.502 -4.221,-1.494 -0.501,-0.328 -0.739,-0.906 -0.854,-1.338 l 1.822,-0.007 c 0.011,0 0.024,0.011 0.035,0.018 1.033,0.435 2.82,0.211 4.414,0.767 1.455,0.508 2.745,1.78 2.987,2.441 0.688,1.873 -5.562,1.735 -5.562,1.735 0,0 1.213,0.515 4.234,0.353 1.511,-0.083 3.519,-0.851 5.293,-1.013 1.842,-0.17 3.432,0.269 4.217,0.546 0.588,0.214 0.809,0.975 0.467,1.469 -0.816,1.182 -3.647,2.43 -3.647,2.43 0,0 7.304,3.481 7.456,5.338 C 6.437,0.435 0,0 0,0 m -13.682,-6.146 c -0.384,0.052 -0.342,0.19 -0.342,0.19 0,0 0.28,0.612 0.715,0.971 0.287,0.235 0.989,0.277 0.989,0.277 0,0 0.394,-0.529 0.671,-0.916 0.214,-0.308 0.425,-0.84 -2.033,-0.522 m 3.74,2.61 -0.705,-1.532 c 0,0 -0.415,0.149 -0.639,0.387 -0.118,0.128 -0.111,0.412 -0.111,0.412 0,0 0.287,0.501 0.702,0.712 0.29,0.145 0.753,0.021 0.753,0.021 m 5.165,-1.96 c -0.232,-0.139 -1.106,-1.041 -1.753,-1.203 -0.747,-0.198 -1.075,0.02 -0.826,0.331 0.38,0.467 1.04,0.723 1.476,0.999 0.297,0.187 0.373,0.467 0.636,0.509 0.591,0.103 1.089,-0.246 0.467,-0.636 m 3.346,2.295 c 0.183,-0.142 -0.28,-1.016 -0.878,-1.881 -0.259,-0.369 -0.705,-0.546 -0.871,-0.383 -0.163,0.159 -0.049,0.65 0.2,1.016 0.574,0.819 1.369,1.376 1.549,1.248 m 1.628,1.428 c 0.373,0.501 0.436,1.078 0.436,1.078 0,0 0.352,-0.235 0.985,-0.36 0.698,-0.141 1.79,-0.117 2.502,-0.214 0.605,-0.083 0.896,-0.29 0.896,-0.29 0,0 -0.114,-0.743 -1.068,-1.428 -2.081,-1.486 -5.97,-3.595 -5.97,-3.595 0,0 0.798,1.127 1.327,2.295 0.142,0.319 0.453,0.809 0.394,1.062 -0.065,0.304 -0.508,0.359 -0.387,0.694 0.114,0.329 0.667,0.467 0.885,0.758 m -13.848,-14.198 h -1.822 c -0.082,-0.304 -0.1,-0.539 -0.1,-0.539 0,0 -0.995,0.301 -2.61,0.539 -0.266,0.045 -0.542,0.084 -0.843,0.115 -4.072,0.48 -10.298,0.968 -10.298,0.968 0,0 -0.563,-0.54 0.09,-1.034 0.017,-0.017 0.038,-0.028 0.055,-0.049 2.271,-1.721 0.623,-0.494 5.801,-1.158 2.15,-0.276 4.687,-0.615 6.398,-1.054 1.079,-0.28 1.87,-0.774 1.87,-0.774 0,0 -1.144,-3.467 -2.285,-5.586 -0.573,-1.079 -1.559,-1.58 -1.559,-1.58 0,0 -1.949,1.873 -3.633,3.792 -2.032,2.316 -3.861,4.756 -3.861,4.756 0,0 -0.221,-0.117 -0.263,-0.459 -0.027,-0.218 0.121,-0.73 0.121,-0.73 0,0 1.874,-3.055 3.737,-5.824 1.182,-1.753 1.673,-3.533 3.46,-3.737 1.342,-0.159 3.329,2.44 4.487,4.936 0.93,2.002 1.186,4 1.186,4 0,0 0.449,0.107 1.244,-0.263 1.345,-0.636 3.34,-1.891 3.34,-1.891 0,0 1.071,-1.241 1.78,-1.282 0.522,-0.032 0.736,1.071 0.754,1.341 0.017,0.211 -0.08,1.369 -0.619,1.825 -0.647,0.546 -1.756,0.384 -1.756,0.384 l -4.923,1.98 c 0,0 -0.328,1.031 0.249,1.324" /></g><g
           transform="translate(99.4126,149.1877)"
           id="g68"><path
             id="path70"
             style="fill:#324789;fill-opacity:1;fill-rule:nonzero;stroke:none"
             d="m 0,0 c -28.738,0 -52.118,-23.379 -52.118,-52.117 0,-28.738 23.38,-52.119 52.118,-52.119 28.738,0 52.117,23.381 52.117,52.119 C 52.117,-23.379 28.738,0 0,0 m 0,-105.211 c -29.276,0 -53.094,23.817 -53.094,53.094 0,29.275 23.818,53.093 53.094,53.093 29.275,0 53.092,-23.818 53.092,-53.093 0,-29.277 -23.817,-53.094 -53.092,-53.094" /></g><g
           transform="translate(20.0834,67.4043)"
           id="g72"><path
             id="path74"
             style="fill:#324789;fill-opacity:1;fill-rule:nonzero;stroke:none"
             d="M 0,0 16.254,2.209 17.104,0.453 5.496,-11.273 4.611,-9.465 8.175,-5.998 5.7,-0.93 0.823,-1.694 Z m 7.439,-0.664 2.001,-4.103 3.267,3.149 C 13.699,-0.664 14.536,0.1 15.21,0.671 14.218,0.394 13.208,0.176 12.189,0.021 Z" /></g><g
           transform="translate(27.297,53.6338)"
           id="g76"><path
             id="path78"
             style="fill:#324789;fill-opacity:1;fill-rule:nonzero;stroke:none"
             d="M 0,0 12.603,9.153 13.672,7.684 7.913,-5.196 17.802,1.998 18.805,0.619 6.201,-8.535 5.13,-7.062 10.892,5.807 1.002,-1.379 Z" /></g><g
           transform="translate(36.6483,41.6)"
           id="g80"><path
             id="path82"
             style="fill:#324789;fill-opacity:1;fill-rule:nonzero;stroke:none"
             d="M 0,0 10.82,11.2 12.099,9.969 7.639,5.351 12.617,0.543 17.076,5.161 18.355,3.923 7.536,-7.28 6.257,-6.046 11.349,-0.771 6.371,4.034 1.279,-1.238 Z" /></g><g
           transform="translate(63.4061,39.776)"
           id="g84"><path
             id="path86"
             style="fill:#324789;fill-opacity:1;fill-rule:nonzero;stroke:none"
             d="m 0,0 1.49,-0.971 -4.902,-7.543 c -0.85,-1.314 -1.656,-2.271 -2.413,-2.88 -0.757,-0.605 -1.624,-0.936 -2.603,-0.988 -0.981,-0.049 -2.008,0.276 -3.09,0.974 -1.051,0.688 -1.773,1.452 -2.167,2.31 -0.394,0.853 -0.474,1.773 -0.239,2.762 0.232,0.978 0.799,2.164 1.697,3.546 l 4.899,7.546 1.489,-0.964 -4.898,-7.546 c -0.733,-1.134 -1.189,-2.026 -1.355,-2.683 -0.173,-0.656 -0.131,-1.272 0.121,-1.849 0.253,-0.574 0.695,-1.072 1.331,-1.486 1.085,-0.709 2.05,-0.92 2.886,-0.647 0.837,0.277 1.791,1.234 2.856,2.876 z" /></g><g
           transform="translate(61.2885,23.1368)"
           id="g88"><path
             id="path90"
             style="fill:#324789;fill-opacity:1;fill-rule:nonzero;stroke:none"
             d="M 0,0 6.827,14 8.424,13.219 1.597,-0.778 Z" /></g><g
           transform="translate(87.467,30.439)"
           id="g92"><path
             id="path94"
             style="fill:#324789;fill-opacity:1;fill-rule:nonzero;stroke:none"
             d="m 0,0 1.725,-0.432 -2.178,-8.725 c -0.38,-1.521 -0.826,-2.689 -1.345,-3.512 -0.518,-0.816 -1.234,-1.414 -2.143,-1.781 -0.905,-0.366 -1.987,-0.394 -3.239,-0.086 -1.213,0.304 -2.143,0.795 -2.796,1.476 -0.65,0.681 -1.03,1.528 -1.127,2.531 -0.1,1.009 0.052,2.312 0.449,3.909 l 2.178,8.729 1.721,-0.426 -2.174,-8.725 c -0.325,-1.317 -0.467,-2.309 -0.411,-2.983 0.052,-0.674 0.294,-1.241 0.719,-1.708 0.425,-0.463 1.006,-0.788 1.742,-0.971 1.258,-0.315 2.24,-0.204 2.938,0.329 0.705,0.532 1.29,1.752 1.763,3.65 z" /></g><g
           transform="translate(90.0063,14.3969)"
           id="g96"><path
             id="path98"
             style="fill:#324789;fill-opacity:1;fill-rule:nonzero;stroke:none"
             d="M 0,0 1.085,15.538 2.904,15.41 9.057,2.72 9.911,14.919 11.608,14.798 10.522,-0.736 8.704,-0.612 2.551,12.078 1.694,-0.118 Z" /></g><g
           transform="translate(104.3084,29.6193)"
           id="g100"><path
             id="path102"
             style="fill:#324789;fill-opacity:1;fill-rule:nonzero;stroke:none"
             d="M 0,0 1.355,-15.518 3.128,-15.359 1.77,0.156 Z" /></g><g
           transform="translate(116.5395,15.4858)"
           id="g104"><path
             id="path106"
             style="fill:#324789;fill-opacity:1;fill-rule:nonzero;stroke:none"
             d="M 0,0 -8.296,14.159 -6.419,14.56 -0.664,4.214 C -0.204,3.384 0.204,2.596 0.553,1.863 0.577,2.738 0.636,3.619 0.726,4.508 L 1.905,16.326 3.675,16.703 1.804,0.384 Z" /></g><g
           transform="translate(126.739,18.0822)"
           id="g108"><path
             id="path110"
             style="fill:#324789;fill-opacity:1;fill-rule:nonzero;stroke:none"
             d="M 0,0 -5.583,14.543 3.446,18.006 4.1,16.299 -3.267,13.471 -1.552,9.005 5.344,11.649 6.001,9.945 -0.902,7.297 1.006,2.34 8.67,5.282 9.323,3.578 Z" /></g><g
           transform="translate(139.7337,23.5212)"
           id="g112"><path
             id="path114"
             style="fill:#324789;fill-opacity:1;fill-rule:nonzero;stroke:none"
             d="m 0,0 -8.023,13.35 5.092,3.056 c 1.019,0.619 1.87,0.961 2.544,1.04 0.674,0.076 1.355,-0.089 2.039,-0.504 C 2.333,16.527 2.897,15.956 3.336,15.217 3.906,14.27 4.124,13.319 3.982,12.348 3.847,11.383 3.284,10.484 2.288,9.648 2.824,9.662 3.263,9.627 3.602,9.534 4.331,9.323 5.106,8.981 5.925,8.507 L 10.097,6.066 8.203,4.922 5.016,6.792 C 4.089,7.328 3.357,7.722 2.814,7.975 2.268,8.231 1.836,8.372 1.504,8.403 1.179,8.441 0.878,8.414 0.601,8.345 0.404,8.282 0.111,8.134 -0.283,7.902 L -2.04,6.844 1.524,0.913 Z m -2.956,8.372 3.26,1.96 c 0.692,0.415 1.182,0.823 1.476,1.224 0.287,0.397 0.418,0.85 0.401,1.334 -0.017,0.488 -0.155,0.948 -0.418,1.383 -0.377,0.633 -0.885,1.037 -1.525,1.206 -0.632,0.17 -1.379,0.004 -2.226,-0.508 l -3.626,-2.177 z" /></g><g
           transform="translate(148.9616,35.254)"
           id="g116"><path
             id="path118"
             style="fill:#324789;fill-opacity:1;fill-rule:nonzero;stroke:none"
             d="M 0,0 1.165,1.203 C 1.728,0.657 2.281,0.28 2.828,0.083 3.37,-0.118 3.975,-0.142 4.642,0.017 5.306,0.169 5.932,0.487 6.513,0.978 7.031,1.414 7.415,1.884 7.657,2.399 7.902,2.911 7.989,3.405 7.919,3.882 7.85,4.359 7.66,4.781 7.353,5.144 7.045,5.517 6.678,5.766 6.253,5.887 5.832,6.011 5.327,5.987 4.743,5.818 4.362,5.711 3.588,5.393 2.427,4.864 1.262,4.338 0.394,4.03 -0.18,3.948 -0.92,3.837 -1.594,3.903 -2.205,4.145 -2.817,4.387 -3.353,4.781 -3.813,5.33 c -0.505,0.602 -0.833,1.29 -0.978,2.06 -0.145,0.771 -0.052,1.528 0.283,2.275 0.339,0.743 0.851,1.407 1.542,1.988 0.761,0.639 1.552,1.057 2.371,1.261 0.82,0.204 1.618,0.153 2.396,-0.134 0.774,-0.291 1.469,-0.778 2.081,-1.462 L 2.676,10.108 C 1.974,10.803 1.258,11.176 0.532,11.217 -0.19,11.266 -0.951,10.958 -1.739,10.294 -2.558,9.606 -3.011,8.929 -3.09,8.265 -3.177,7.601 -3.011,7.021 -2.596,6.526 -2.237,6.098 -1.804,5.856 -1.307,5.807 -0.816,5.745 0.104,6.032 1.452,6.672 2.8,7.304 3.771,7.688 4.362,7.816 5.223,7.996 6.004,7.961 6.703,7.709 7.394,7.456 8.009,7.014 8.545,6.374 9.077,5.738 9.423,5.016 9.582,4.19 9.741,3.367 9.655,2.558 9.337,1.756 9.008,0.954 8.483,0.242 7.75,-0.366 6.824,-1.144 5.915,-1.642 5.023,-1.85 4.138,-2.064 3.246,-2.005 2.358,-1.67 1.476,-1.338 0.688,-0.778 0,0" /></g><g
           transform="translate(163.469,41.8534)"
           id="g120"><path
             id="path122"
             style="fill:#324789;fill-opacity:1;fill-rule:nonzero;stroke:none"
             d="m 0,0 -11.573,10.422 1.192,1.321 L 1.193,1.324 Z" /></g><g
           transform="translate(170.1185,50.049)"
           id="g124"><path
             id="path126"
             style="fill:#324789;fill-opacity:1;fill-rule:nonzero;stroke:none"
             d="m 0,0 -11.262,7.885 -2.531,-3.616 -1.5,1.047 6.084,8.691 1.497,-1.051 -2.53,-3.619 L 1.02,1.455 Z" /></g><g
           transform="translate(177.0745,61.7676)"
           id="g128"><path
             id="path130"
             style="fill:#324789;fill-opacity:1;fill-rule:nonzero;stroke:none"
             d="m 0,0 -5.928,2.893 -10.333,-0.701 0.934,1.915 5.396,0.314 c 1.002,0.059 1.987,0.087 2.955,0.08 -0.549,0.722 -1.158,1.569 -1.815,2.537 l -2.99,4.338 0.909,1.86 5.721,-8.746 5.932,-2.893 z" /></g><path
           id="path132"
           style="fill:#324789;fill-opacity:1;fill-rule:nonzero;stroke:#ffffff;stroke-width:0.73299998;stroke-linecap:butt;stroke-linejoin:miter;stroke-miterlimit:3.86400008;stroke-dasharray:none;stroke-opacity:1"
           d="m 94.525,123.473 h 9.485 V 85.922 h -9.485 z" /><path
           id="path134"
           style="fill:#324789;fill-opacity:1;fill-rule:nonzero;stroke:none"
           d="m 91.69,88.466 h 3.125 v 33.731 H 91.69 Z" /><path
           id="path136"
           style="fill:none;stroke:#ffffff;stroke-width:0.73299998;stroke-linecap:butt;stroke-linejoin:miter;stroke-miterlimit:3.86400008;stroke-dasharray:none;stroke-opacity:1"
           d="m 91.69,122.197 h 3.128 V 88.466 H 91.69 Z" /><path
           id="path138"
           style="fill:#324789;fill-opacity:1;fill-rule:nonzero;stroke:none"
           d="m 103.64,86.751 h 2.962 v 35.394 h -2.962 z" /><path
           id="path140"
           style="fill:#324789;fill-opacity:1;fill-rule:nonzero;stroke:none"
           d="m 103.64,86.751 h 2.962 v 35.394 h -2.962 z" /><path
           id="path142"
           style="fill:none;stroke:#ffffff;stroke-width:0.73299998;stroke-linecap:butt;stroke-linejoin:miter;stroke-miterlimit:3.86400008;stroke-dasharray:none;stroke-opacity:1"
           d="m 103.64,122.149 h 2.959 V 86.755 h -2.959 z" /><path
           id="path144"
           style="fill:#324789;fill-opacity:1;fill-rule:nonzero;stroke:#ffffff;stroke-width:0.73299998;stroke-linecap:butt;stroke-linejoin:miter;stroke-miterlimit:3.86400008;stroke-dasharray:none;stroke-opacity:1"
           d="M 56.538,101.66 H 69.981 V 86.799 H 56.538 Z" /><g
           transform="translate(51.5995,85.1885)"
           id="g146"><path
             id="path148"
             style="fill:#324789;fill-opacity:1;fill-rule:nonzero;stroke:none"
             d="M 0,0 V 24.785 H 12.807 V 16.962 H 4.694 V 3.18 Z" /></g><g
           transform="translate(51.5995,85.1885)"
           id="g150"><path
             id="path152"
             style="fill:none;stroke:#ffffff;stroke-width:0.73299998;stroke-linecap:butt;stroke-linejoin:miter;stroke-miterlimit:3.86400008;stroke-dasharray:none;stroke-opacity:1"
             d="M 0,0 V 24.785 H 12.807 V 16.962 H 4.694 V 3.18 Z" /></g><path
           id="path154"
           style="fill:#324789;fill-opacity:1;fill-rule:nonzero;stroke:#ffffff;stroke-width:0.73299998;stroke-linecap:butt;stroke-linejoin:miter;stroke-miterlimit:3.86400008;stroke-dasharray:none;stroke-opacity:1"
           d="M 72.571,101.761 H 85.365 V 85.483 H 72.571 Z" /><path
           id="path156"
           style="fill:#324789;fill-opacity:1;fill-rule:nonzero;stroke:#ffffff;stroke-width:0.73299998;stroke-linecap:butt;stroke-linejoin:miter;stroke-miterlimit:3.86400008;stroke-dasharray:none;stroke-opacity:1"
           d="m 65.191,106.552 h 19.164 v -4.497 H 65.191 Z" /><path
           id="path158"
           style="fill:#324789;fill-opacity:1;fill-rule:nonzero;stroke:#ffffff;stroke-width:0.73299998;stroke-linecap:butt;stroke-linejoin:miter;stroke-miterlimit:3.86400008;stroke-dasharray:none;stroke-opacity:1"
           d="m 129.642,101.218 h 13.087 V 86.699 h -13.087 z" /><path
           id="path160"
           style="fill:#324789;fill-opacity:1;fill-rule:nonzero;stroke:#ffffff;stroke-width:0.73299998;stroke-linecap:butt;stroke-linejoin:miter;stroke-miterlimit:3.86400008;stroke-dasharray:none;stroke-opacity:1"
           d="m 113.786,101.806 h 12.323 v -16.13 h -12.323 z" /><path
           id="path162"
           style="fill:#324789;fill-opacity:1;fill-rule:nonzero;stroke:none"
           d="m 115.072,106.206 h 19.164 v -4.497 h -19.164 z" /><path
           id="path164"
           style="fill:#324789;fill-opacity:1;fill-rule:nonzero;stroke:#ffffff;stroke-width:0.73299998;stroke-linecap:butt;stroke-linejoin:miter;stroke-miterlimit:3.86400008;stroke-dasharray:none;stroke-opacity:1"
           d="m 115.072,106.206 h 19.164 v -4.497 h -19.164 z" /><path
           id="path166"
           style="fill:#324789;fill-opacity:1;fill-rule:nonzero;stroke:#ffffff;stroke-width:0.73299998;stroke-linecap:butt;stroke-linejoin:miter;stroke-miterlimit:3.86400008;stroke-dasharray:none;stroke-opacity:1"
           d="m 69.37,103.52 h 4.131 V 86.751 H 69.37 Z" /><g
           transform="translate(52.8187,84.591)"
           id="g168"><path
             id="path170"
             style="fill:#324789;fill-opacity:1;fill-rule:nonzero;stroke:none"
             d="m 0,0 c 3.557,2.966 7.722,4.75 12.714,4.75 4.404,0 9.568,-2.375 12.904,-4.74 z" /></g><g
           transform="translate(52.8187,84.591)"
           id="g172"><path
             id="path174"
             style="fill:none;stroke:#ffffff;stroke-width:0.73299998;stroke-linecap:butt;stroke-linejoin:miter;stroke-miterlimit:3.86400008;stroke-dasharray:none;stroke-opacity:1"
             d="m 0,0 c 3.557,2.966 7.722,4.75 12.714,4.75 4.404,0 9.568,-2.375 12.904,-4.74 z" /></g><g
           transform="translate(75.7084,84.591)"
           id="g176"><path
             id="path178"
             style="fill:#324789;fill-opacity:1;fill-rule:nonzero;stroke:none"
             d="m 0,0 c 3.554,2.966 8.106,4.75 13.098,4.75 4.4,0 9.561,-2.375 12.904,-4.74 z" /></g><g
           transform="translate(75.7084,84.591)"
           id="g180"><path
             id="path182"
             style="fill:none;stroke:#ffffff;stroke-width:0.73299998;stroke-linecap:butt;stroke-linejoin:miter;stroke-miterlimit:3.86400008;stroke-dasharray:none;stroke-opacity:1"
             d="m 0,0 c 3.554,2.966 8.106,4.75 13.098,4.75 4.4,0 9.561,-2.375 12.904,-4.74 z" /></g><g
           transform="translate(98.4934,84.591)"
           id="g184"><path
             id="path186"
             style="fill:#324789;fill-opacity:1;fill-rule:nonzero;stroke:none"
             d="m 0,0 c 3.554,2.966 8.099,4.75 13.091,4.75 4.407,0 9.568,-2.375 12.911,-4.74 z" /></g><g
           transform="translate(98.4934,84.591)"
           id="g188"><path
             id="path190"
             style="fill:none;stroke:#ffffff;stroke-width:0.73299998;stroke-linecap:butt;stroke-linejoin:miter;stroke-miterlimit:3.86400008;stroke-dasharray:none;stroke-opacity:1"
             d="m 0,0 c 3.554,2.966 8.099,4.75 13.091,4.75 4.407,0 9.568,-2.375 12.911,-4.74 z" /></g><g
           transform="translate(148.5226,85.0814)"
           id="g192"><path
             id="path194"
             style="fill:#324789;fill-opacity:1;fill-rule:nonzero;stroke:none"
             d="m 0,0 v 25.186 h -14.764 v -8.97 H -5.41 V 2.561 Z" /></g><g
           transform="translate(148.5226,85.0814)"
           id="g196"><path
             id="path198"
             style="fill:#324789;fill-opacity:1;fill-rule:nonzero;stroke:none"
             d="m 0,0 v 25.186 h -14.764 v -8.97 H -5.41 V 2.561 Z" /></g><g
           transform="translate(148.5226,85.0814)"
           id="g200"><path
             id="path202"
             style="fill:none;stroke:#ffffff;stroke-width:0.80199999;stroke-linecap:butt;stroke-linejoin:miter;stroke-miterlimit:3.86400008;stroke-dasharray:none;stroke-opacity:1"
             d="m 0,0 v 25.186 h -14.764 v -8.97 H -5.41 V 2.561 Z" /></g><path
           id="path204"
           style="fill:#324789;fill-opacity:1;fill-rule:nonzero;stroke:#ffffff;stroke-width:0.73299998;stroke-linecap:butt;stroke-linejoin:miter;stroke-miterlimit:3.86400008;stroke-dasharray:none;stroke-opacity:1"
           d="m 125.228,103.569 h 4.245 v -17.45 h -4.245 z" /><g
           transform="translate(122.2515,84.591)"
           id="g206"><path
             id="path208"
             style="fill:#324789;fill-opacity:1;fill-rule:nonzero;stroke:none"
             d="m 0,0 c 3.557,2.966 8.103,4.75 13.094,4.75 4.408,0 8.383,-2.372 11.726,-4.736 z" /></g><g
           transform="translate(122.2515,84.591)"
           id="g210"><path
             id="path212"
             style="fill:none;stroke:#ffffff;stroke-width:0.73299998;stroke-linecap:butt;stroke-linejoin:miter;stroke-miterlimit:3.86400008;stroke-dasharray:none;stroke-opacity:1"
             d="m 0,0 c 3.557,2.966 8.103,4.75 13.094,4.75 4.408,0 8.383,-2.372 11.726,-4.736 z" /></g><g
           transform="translate(91.0323,75.9619)"
           id="g214"><path
             id="path216"
             style="fill:#324789;fill-opacity:1;fill-rule:nonzero;stroke:none"
             d="m 0,0 v -8.531 h -2.354 v 5.579 C -2.734,-3.239 -3.101,-3.474 -3.46,-3.65 -3.82,-3.823 -4.266,-4 -4.801,-4.162 v 1.898 c 0.791,0.262 1.406,0.567 1.845,0.929 0.439,0.36 0.782,0.806 1.034,1.335 z" /></g><g
           transform="translate(93.6667,69.3061)"
           id="g218"><path
             id="path220"
             style="fill:#324789;fill-opacity:1;fill-rule:nonzero;stroke:none"
             d="m 0,0 2.319,0.294 c 0.063,-0.325 0.166,-0.55 0.308,-0.681 0.145,-0.135 0.325,-0.201 0.532,-0.201 0.374,0 0.668,0.19 0.879,0.567 C 4.19,0.256 4.304,0.847 4.38,1.742 4.1,1.455 3.816,1.248 3.519,1.117 3.229,0.982 2.886,0.913 2.503,0.913 1.753,0.913 1.117,1.182 0.598,1.711 0.083,2.25 -0.18,2.924 -0.18,3.74 c 0,0.557 0.135,1.065 0.398,1.521 0.262,0.463 0.625,0.805 1.089,1.041 0.463,0.235 1.04,0.352 1.738,0.352 0.84,0 1.511,-0.145 2.019,-0.432 C 5.572,5.935 5.977,5.476 6.281,4.85 6.582,4.224 6.734,3.391 6.734,2.361 6.734,0.854 6.416,-0.259 5.78,-0.961 5.144,-1.663 4.259,-2.019 3.132,-2.019 2.461,-2.019 1.936,-1.936 1.549,-1.784 1.165,-1.628 0.843,-1.407 0.591,-1.11 0.332,-0.812 0.135,-0.443 0,0 M 4.293,3.747 C 4.293,4.2 4.179,4.556 3.951,4.815 3.723,5.074 3.443,5.202 3.115,5.202 2.803,5.202 2.548,5.088 2.344,4.85 2.14,4.618 2.039,4.272 2.039,3.806 2.039,3.336 2.14,2.976 2.354,2.727 2.568,2.478 2.835,2.354 3.149,2.354 c 0.329,0 0.602,0.121 0.819,0.363 0.218,0.239 0.325,0.581 0.325,1.03" /></g><g
           transform="translate(108.1883,67.4313)"
           id="g222"><path
             id="path224"
             style="fill:#324789;fill-opacity:1;fill-rule:nonzero;stroke:none"
             d="m 0,0 h -6.997 c 0.083,0.691 0.325,1.338 0.733,1.946 0.405,0.612 1.169,1.327 2.289,2.154 0.677,0.508 1.12,0.895 1.31,1.158 0.193,0.266 0.287,0.515 0.287,0.75 0,0.256 -0.094,0.474 -0.284,0.657 -0.186,0.179 -0.425,0.273 -0.712,0.273 -0.301,0 -0.539,-0.097 -0.729,-0.284 -0.19,-0.19 -0.318,-0.518 -0.384,-0.995 l -2.33,0.19 c 0.09,0.653 0.259,1.168 0.505,1.535 0.242,0.373 0.584,0.653 1.034,0.854 0.439,0.193 1.057,0.293 1.839,0.293 0.822,0 1.458,-0.097 1.915,-0.283 C -1.068,8.061 -0.709,7.774 -0.449,7.387 -0.187,7 -0.055,6.568 -0.055,6.084 -0.055,5.572 -0.207,5.088 -0.508,4.622 -0.805,4.158 -1.352,3.647 -2.14,3.09 -2.61,2.762 -2.924,2.534 -3.08,2.409 -3.239,2.278 -3.426,2.109 -3.64,1.898 H 0 Z" /></g><g
           transform="translate(110.5814,71.9398)"
           id="g226"><path
             id="path228"
             style="fill:#324789;fill-opacity:1;fill-rule:nonzero;stroke:none"
             d="m 0,0 c -0.363,0.197 -0.633,0.411 -0.799,0.65 -0.228,0.332 -0.345,0.712 -0.345,1.134 0,0.701 0.332,1.279 0.992,1.724 C 0.366,3.847 1.047,4.02 1.894,4.02 3.014,4.02 3.844,3.806 4.38,3.381 4.916,2.952 5.185,2.416 5.185,1.77 5.185,1.393 5.078,1.037 4.864,0.712 4.701,0.466 4.445,0.231 4.1,0 4.556,-0.214 4.891,-0.505 5.119,-0.864 5.344,-1.22 5.455,-1.618 5.455,-2.054 5.455,-2.472 5.358,-2.862 5.164,-3.229 4.971,-3.595 4.736,-3.875 4.456,-4.069 4.172,-4.269 3.827,-4.418 3.408,-4.508 2.99,-4.601 2.544,-4.653 2.074,-4.653 c -0.888,0 -1.566,0.107 -2.036,0.318 -0.474,0.211 -0.826,0.519 -1.072,0.93 -0.242,0.408 -0.366,0.864 -0.366,1.362 0,0.498 0.114,0.913 0.342,1.251 C -0.826,-0.449 -0.477,-0.183 0,0 m 1.047,1.645 c 0,-0.283 0.094,-0.522 0.273,-0.698 0.184,-0.18 0.426,-0.27 0.73,-0.27 0.266,0 0.491,0.09 0.664,0.27 C 2.883,1.12 2.969,1.348 2.969,1.625 2.969,1.915 2.879,2.154 2.7,2.33 2.52,2.509 2.288,2.599 2.008,2.599 1.725,2.599 1.493,2.509 1.314,2.333 1.137,2.157 1.047,1.929 1.047,1.645 M 0.919,-1.96 c 0,-0.37 0.115,-0.674 0.339,-0.906 0.225,-0.238 0.481,-0.356 0.771,-0.356 0.277,0 0.529,0.121 0.75,0.36 0.221,0.242 0.329,0.542 0.329,0.902 0,0.373 -0.111,0.681 -0.332,0.916 -0.225,0.235 -0.481,0.356 -0.778,0.356 -0.287,0 -0.539,-0.114 -0.754,-0.349 C 1.027,-1.262 0.919,-1.573 0.919,-1.96" /></g></g></g></g></svg>